<svg width="149" height="166" viewBox="0 0 149 166" fill="none" xmlns="http://www.w3.org/2000/svg">
<path d="M1.15961 67.9174C2.90097 64.0505 7.67652 61.3409 11.7397 62.3852C15.6973 63.4296 17.7025 67.6634 16.9638 71.7843C16.4889 74.6633 15.1433 77.2036 16.225 79.9415C17.2012 82.4818 19.0218 84.5423 21.1061 86.1511C21.7393 86.6592 22.4253 87.1108 23.0585 87.6471C23.5335 83.131 24.7471 75.623 28.7576 67.861C36.5145 52.8168 52.9783 40.0871 72.661 39.833C93.1615 39.579 111.868 52.9015 118.965 70.2602C121.472 76.3851 122.158 82.1149 122.369 86.5181C123.846 85.5584 125.641 85.2197 127.382 83.9778C128.279 83.385 129.123 82.6794 129.836 81.8608C133.477 77.6552 131.498 75.3408 131.788 70.5706C132.685 63.9941 140.046 61.9618 144.796 65.0384C146.194 65.8852 147.276 67.0707 147.856 68.7078C150.6 78.1633 144.057 86.7156 137.988 93.5462C136.564 95.0704 135.086 96.5381 133.398 97.7518C130.865 99.6429 127.751 100.998 124.955 102.127C123.952 102.522 122.976 102.861 122.184 103.03C122 103.058 121.841 103.086 121.683 103.115C120.469 111.159 117.435 121.066 109.995 128.885C104.85 134.276 98.8605 137.296 92.8713 138.933C93.5837 142.32 94.5863 144.578 97.9635 146.017C99.6257 146.78 101.842 147.513 102.739 148.981C104.269 151.437 102.818 154.598 101.13 156.63C96.486 162.078 86.7502 171.195 84.0854 162.219C83.3466 159.481 84.7977 156.489 86.6446 154.711C86.9612 154.344 87.1196 154.118 87.014 153.892C86.5655 153.3 85.3782 152.876 84.6394 152.199C82.9245 150.9 81.315 148.868 80.5235 146.695C79.8903 144.973 79.4681 142.715 79.2043 140.626C74.8509 140.655 70.8405 140.288 67.5952 140.005C66.7773 139.921 65.8802 139.836 64.9568 139.751C64.3235 144.888 63.2946 149.038 62.0281 154.062C61.2102 157.054 60.5506 159.876 59.0995 162.332C56.936 165.832 53.9809 166.509 50.4454 164.844C47.9653 163.8 45.9601 162.699 43.691 161.203C42.1608 160.158 40.393 159.029 39.1002 157.618C36.1979 154.429 38.5725 149.461 42.4246 148.925C44.509 148.586 46.6197 149.884 48.6249 150.534C49.9177 150.957 50.3927 149.941 50.7093 148.896C51.3425 146.78 51.9757 144.296 52.6353 140.88C52.8464 139.921 52.9519 138.848 53.2158 137.889C44.509 135.772 35.0898 131.51 28.9686 121.998C24.9846 115.816 23.3752 108.986 22.7947 103.03C22.267 102.945 21.6866 102.72 21.238 102.522C11.5814 97.6389 0.816611 84.9092 0.5 71.248C0.526384 70.0344 0.737464 68.9053 1.186 67.861L1.15961 67.9174Z" fill="#E8A0BA"/>
<path d="M122 26.6799C122.527 27.4702 123.372 28.0065 124.374 28.4864C125.799 29.192 127.197 30.0388 128.385 31.0549C138.674 39.3814 134.743 55.6393 122.949 61.7078C121.34 62.4417 119.308 63.6271 117.91 62.4417C99.9687 47.3128 66.3288 35.6556 36.5937 58.0103C35.9605 58.4619 35.38 58.9417 34.7204 59.3086C33.8761 59.7885 33.2165 59.8167 32.0556 59.7038C27.7814 59.5062 21.4755 57.0224 17.8081 51.9135C13.7977 46.5225 11.1593 36.7564 16.1723 30.575C19.3648 26.4541 24.8791 25.2122 29.9185 26.2848C31.9237 26.567 31.7918 25.8049 32.1348 23.688C34.3246 10.7325 45.5907 3.98659 56.6721 9.34944C57.279 9.65992 57.9913 10.0269 58.5718 10.3091C59.6271 10.8172 60.2604 10.9301 60.8408 9.99863C68.5978 -1.94077 83.0828 -3.8601 92.9241 7.90994C94.9557 9.94218 97.3566 7.74059 99.5729 7.23253C107.304 4.86159 116.01 9.34944 119.414 17.4784C120.311 19.4824 120.839 21.684 121.102 23.8856C121.234 24.8735 121.498 25.9178 122 26.6517H122.026L122 26.6799Z" fill="#452CA7"/>
<path d="M118.596 68.8489C120.074 68.7924 120.39 66.6473 120.786 64.982C121.182 62.8086 121.023 60.4941 120.311 58.4619C117.805 51.4337 110.127 47.0588 103.715 44.0951C78.6239 31.4783 36.198 37.8572 30.6045 53.8611C30.0241 55.724 29.9449 57.3329 30.4726 59.6191C30.8948 61.3691 31.8446 63.3167 33.6387 61.736C34.9316 60.5788 36.3035 59.3086 37.7019 58.2925C43.6911 53.974 51.6856 51.9418 58.6246 50.7845C78.0698 47.4539 97.9899 54.1434 103.161 57.6716C107.013 59.8732 111.525 63.0909 116.142 67.4094C116.855 68.0303 117.752 68.7924 118.57 68.8489H118.596Z" fill="#FFF2E2"/>
<path d="M67.3316 67.7763C68.1231 65.7723 68.9675 64.3893 71.1837 64.1917C76.9619 63.7683 83.5843 63.8812 90.3387 64.728C92.898 65.0384 95.3253 65.4618 97.6471 65.9417C98.7817 66.1392 100.206 66.4215 101.103 67.1271C103.927 69.1876 102.027 72.0101 98.7289 72.4053C97.9637 72.4053 97.225 72.6311 97.0667 73.5061C96.6445 74.9738 96.0641 76.3851 95.3253 77.627C88.2807 89.8487 71.1046 87.0826 67.2789 73.3932C67.1205 72.8005 66.9622 72.2924 66.4082 72.2077C64.6932 72.1513 63.0838 72.1513 61.3688 72.1513C60.7883 72.1513 60.3134 72.4053 60.0496 72.998C56.8571 81.127 48.335 85.5302 41.2112 82.7641C35.8024 80.7036 32.0822 75.0303 31.5546 68.9618C31.5546 68.0868 31.0005 67.6916 30.2617 67.4941C28.9689 67.0425 28.1774 65.9417 28.2038 65.0949C28.3093 63.9941 29.2064 63.3731 30.2353 63.0909C30.895 62.9215 31.6865 62.978 32.3197 62.978C33.4278 62.978 34.4568 62.9215 35.5386 62.9215C42.161 62.8368 49.0737 63.2038 55.6434 63.9376C57.9388 64.0505 59.6274 65.0102 60.2606 67.4941C60.3662 67.8328 60.5509 67.9457 60.8411 67.9457C62.0548 67.9457 65.9333 67.9739 66.9095 67.9739C67.0414 67.9739 67.1469 67.9457 67.2525 67.8045L67.3316 67.7763Z" fill="#1B1B1B"/>
<path d="M43.8494 93.6027C43.8494 96.2841 46.1448 97.9212 48.2291 98.7961C52.4242 100.8 59.3369 102.183 64.4819 101.703C68.0965 101.365 75.7479 99.8969 78.9932 96.2841C80.9456 94.0825 79.8903 90.3567 77.1991 89.764C75.5105 89.3406 73.8219 90.1309 72.2652 90.7801C71.0779 91.2882 69.8906 91.7115 68.6242 92.0503C62.9252 93.6309 56.6721 93.0664 51.2633 90.639C49.7331 89.9898 47.9917 89.3406 46.3823 89.8769C44.9047 90.3285 43.8494 91.9091 43.8494 93.5744V93.6309V93.6027Z" fill="white" stroke="#1D1D1B" stroke-width="1.06" stroke-miterlimit="10"/>
<path d="M144.558 76.6109C141.313 79.2923 136.775 78.8407 134.4 75.5665" stroke="#1D1D1B" stroke-width="0.41" stroke-miterlimit="10" stroke-linecap="round"/>
<path d="M11.9509 75.623C10.1304 78.1915 6.72678 78.248 5.06457 76.4415C3.40237 74.6351 3.56067 70.994 6.01441 69.1029" stroke="#1D1D1B" stroke-width="0.34" stroke-miterlimit="10" stroke-linecap="round"/>
<path d="M112.501 93.2357C112.343 94.1389 111.842 96.5381 109.889 98.6832C107.831 100.941 105.43 101.534 104.613 101.675" stroke="#1D1D1B" stroke-width="0.34" stroke-miterlimit="10" stroke-linecap="round"/>
</svg>
