<svg width="149" height="166" viewBox="0 0 149 166" fill="none" xmlns="http://www.w3.org/2000/svg">
<path d="M147.84 67.934C146.099 64.0678 141.323 61.3586 137.26 62.4028C133.303 63.4469 131.297 67.68 132.036 71.8003C132.511 74.6788 133.857 77.2187 132.775 79.9561C131.799 82.4959 129.978 84.556 127.894 86.1646C127.261 86.6726 126.575 87.1241 125.941 87.6603C125.467 83.145 124.253 75.6383 120.242 67.8776C112.485 52.8359 96.0217 40.1084 76.339 39.8544C55.8385 39.6004 37.132 52.9206 30.0346 70.2764C27.5281 76.4003 26.8421 82.1291 26.6311 86.5315C25.1536 85.572 23.3594 85.2333 21.6181 83.9916C20.721 83.399 19.8767 82.6935 19.1643 81.8751C15.5233 77.6702 17.5021 75.3561 17.2119 70.5868C16.3148 64.0114 8.95362 61.9795 4.20445 65.0555C2.80608 65.9021 1.72433 67.0874 1.14387 68.7242C-1.60009 78.1782 4.94321 86.729 11.0116 93.5585C12.4363 95.0824 13.9139 96.5499 15.6025 97.7634C18.1353 99.6541 21.2487 101.009 24.0454 102.138C25.048 102.533 26.0242 102.871 26.8158 103.041C27.0005 103.069 27.1588 103.097 27.3171 103.125C28.5307 111.168 31.5649 121.074 39.0053 128.891C44.1502 134.281 50.1395 137.301 56.1287 138.937C55.4163 142.324 54.4137 144.582 51.0365 146.021C49.3743 146.783 47.158 147.517 46.261 148.984C44.7307 151.439 46.1818 154.6 47.8704 156.632C52.514 162.078 62.2498 171.194 64.9146 162.22C65.6534 159.482 64.2023 156.491 62.3554 154.713C62.0388 154.346 61.8805 154.12 61.986 153.894C62.4345 153.302 63.6218 152.878 64.3606 152.201C66.0756 150.903 67.685 148.871 68.4765 146.698C69.1097 144.977 69.5319 142.719 69.7957 140.631C74.1491 140.659 78.1595 140.292 81.4048 140.01C82.2227 139.925 83.1198 139.84 84.0432 139.756C84.6765 144.892 85.7054 149.04 86.9719 154.064C87.7898 157.055 88.4494 159.877 89.9005 162.332C92.064 165.832 95.0191 166.509 98.5546 164.844C101.035 163.8 103.04 162.699 105.309 161.204C106.839 160.159 108.607 159.031 109.9 157.62C112.802 154.431 110.427 149.464 106.575 148.928C104.491 148.589 102.38 149.887 100.375 150.536C99.0823 150.959 98.6074 149.943 98.2907 148.899C97.6575 146.783 97.0243 144.299 96.3647 140.885C96.1536 139.925 96.0481 138.853 95.7842 137.893C104.491 135.777 113.91 131.515 120.031 122.005C124.015 115.825 125.625 108.995 126.205 103.041C126.733 102.956 127.313 102.73 127.762 102.533C137.419 97.6505 148.183 84.9229 148.5 71.2641C148.474 70.0506 148.263 68.9218 147.814 67.8776L147.84 67.934Z" fill="#E5F17D"/>
<path d="M27.0004 26.6754C26.4727 27.4656 25.6284 28.0018 24.6258 28.4815C23.2011 29.187 21.8027 30.0337 20.6154 31.0496C10.3256 39.3747 14.2568 55.6299 26.0506 61.6973C27.66 62.4311 29.6916 63.6163 31.09 62.4311C49.0313 47.3048 82.6712 35.6496 112.406 58.0004C113.04 58.4519 113.62 58.9317 114.28 59.2986C115.124 59.7783 115.783 59.8065 116.944 59.6937C121.219 59.4961 127.524 57.0127 131.192 51.9047C135.202 46.5146 137.841 36.7502 132.828 30.5699C129.635 26.4496 124.121 25.2079 119.082 26.2803C117.076 26.5625 117.208 25.8006 116.865 23.684C114.675 10.7307 103.409 3.98592 92.3279 9.34786C91.721 9.65829 91.0086 10.0252 90.4282 10.3074C89.3728 10.8153 88.7396 10.9282 88.1591 9.99694C80.4022 -1.94044 65.9172 -3.85945 56.0759 7.9086C54.0443 9.94049 51.6433 7.73928 49.427 7.2313C41.6965 4.86076 32.9896 9.34786 29.5861 17.4754C28.689 19.4791 28.1613 21.6803 27.8975 23.8815C27.7656 24.8693 27.5017 25.9134 27.0004 26.6472H26.974L27.0004 26.6754Z" fill="#8EEAF7"/>
<path d="M30.404 68.8371C28.9265 68.7806 28.6099 66.6359 28.2141 64.9708C27.8183 62.7978 27.9766 60.4837 28.689 58.4518C31.1955 51.4249 38.8733 47.0507 45.2847 44.0875C70.3762 31.4728 112.802 37.8507 118.396 53.8519C118.976 55.7144 119.055 57.323 118.527 59.6089C118.105 61.3586 117.155 63.3058 115.361 61.7254C114.068 60.5684 112.697 59.2985 111.298 58.2825C105.309 53.9647 97.3145 51.9328 90.3754 50.7758C70.9302 47.4457 51.0101 54.1341 45.8388 57.6617C41.9867 59.8629 37.475 63.08 32.8577 67.3978C32.1453 68.0187 31.2483 68.7806 30.4304 68.8371H30.404Z" fill="#563AE0"/>
<path d="M81.6687 67.7647C80.8771 65.761 80.0328 64.3782 77.8166 64.1806C72.0384 63.7573 65.416 63.8702 58.6616 64.7168C56.1023 65.0273 53.675 65.4506 51.3531 65.9303C50.2186 66.1279 48.7939 66.4101 47.8968 67.1156C45.0737 69.1757 46.9733 71.9978 50.2714 72.3929C51.0365 72.3929 51.7753 72.6187 51.9336 73.4935C52.3557 74.961 52.9362 76.372 53.6749 77.6137C60.7195 89.8333 77.8957 87.0677 81.7214 73.3806C81.8797 72.788 82.038 72.28 82.5921 72.1953C84.3071 72.1389 85.9165 72.1389 87.6315 72.1389C88.212 72.1389 88.6869 72.3929 88.9507 72.9855C92.1432 81.1131 100.665 85.5155 107.789 82.7499C113.198 80.6898 116.918 75.0174 117.446 68.95C117.446 68.0751 118 67.68 118.739 67.4825C120.031 67.0309 120.823 65.9303 120.797 65.0837C120.691 63.9831 119.794 63.3622 118.765 63.08C118.105 62.9107 117.314 62.9672 116.681 62.9672C115.572 62.9672 114.543 62.9107 113.462 62.9107C106.839 62.8261 99.9266 63.1929 93.3569 63.9267C91.0615 64.0395 89.3729 64.9991 88.7396 67.4825C88.6341 67.8211 88.4494 67.934 88.1592 67.934C86.9455 67.934 83.067 67.9622 82.0908 67.9622C81.9589 67.9622 81.8533 67.934 81.7478 67.7929L81.6687 67.7647Z" fill="#1B1B1B"/>
<path d="M105.151 93.5867C105.151 96.2676 102.855 97.9044 100.771 98.7793C96.5758 100.783 89.6631 102.166 84.5182 101.686C80.9035 101.347 73.2521 99.8799 70.0068 96.2676C68.0544 94.0664 69.1098 90.3413 71.8009 89.7486C73.4895 89.3253 75.1781 90.1155 76.7348 90.7646C77.9221 91.2726 79.1094 91.6959 80.3758 92.0345C86.0748 93.6149 92.3279 93.0505 97.7367 90.6235C99.267 89.9744 101.008 89.3253 102.618 89.8615C104.095 90.3131 105.151 91.8934 105.151 93.5585V93.6149V93.5867Z" fill="white" stroke="#1D1D1B" stroke-width="1.06" stroke-miterlimit="10"/>
<path d="M137.049 75.6101C138.87 78.1781 142.273 78.2346 143.935 76.4285C145.598 74.6223 145.439 70.9819 142.986 69.0911" stroke="#1D1D1B" stroke-width="0.34" stroke-miterlimit="10" stroke-linecap="round"/>
<path d="M5.25977 70.6996C5.39169 71.4616 5.81383 73.4371 7.39689 75.1867C9.08548 77.0493 11.0643 77.5291 11.7503 77.6702" stroke="#1D1D1B" stroke-width="0.28" stroke-miterlimit="10" stroke-linecap="round"/>
</svg>
