<svg width="149" height="167" viewBox="0 0 149 167" fill="none" xmlns="http://www.w3.org/2000/svg">
<path d="M1.15961 68.4174C2.90097 64.5505 7.67652 61.8409 11.7397 62.8852C15.6973 63.9296 17.7025 68.1634 16.9638 72.2843C16.4889 75.1633 15.1433 77.7036 16.225 80.4415C17.2012 82.9818 19.0218 85.0423 21.1061 86.6511C21.7393 87.1592 22.4253 87.6108 23.0585 88.1471C23.5335 83.631 24.7471 76.123 28.7576 68.361C36.5145 53.3168 52.9783 40.5871 72.661 40.333C93.1615 40.079 111.868 53.4015 118.965 70.7602C121.472 76.8851 122.158 82.6149 122.369 87.0181C123.846 86.0584 125.641 85.7197 127.382 84.4778C128.279 83.885 129.123 83.1794 129.836 82.3608C133.477 78.1552 131.498 75.8408 131.788 71.0706C132.685 64.4941 140.046 62.4618 144.796 65.5384C146.194 66.3852 147.276 67.5707 147.856 69.2078C150.6 78.6633 144.057 87.2156 137.988 94.0462C136.564 95.5704 135.086 97.0381 133.398 98.2518C130.865 100.143 127.751 101.498 124.955 102.627C123.952 103.022 122.976 103.361 122.184 103.53C122 103.558 121.841 103.586 121.683 103.615C120.469 111.659 117.435 121.566 109.995 129.385C104.85 134.776 98.8605 137.796 92.8713 139.433C93.5837 142.82 94.5863 145.078 97.9635 146.517C99.6257 147.28 101.842 148.013 102.739 149.481C104.269 151.937 102.818 155.098 101.13 157.13C96.486 162.578 86.7502 171.695 84.0854 162.719C83.3466 159.981 84.7977 156.989 86.6446 155.211C86.9612 154.844 87.1196 154.618 87.014 154.392C86.5655 153.8 85.3782 153.376 84.6394 152.699C82.9245 151.4 81.315 149.368 80.5235 147.195C79.8903 145.473 79.4681 143.215 79.2043 141.126C74.8509 141.155 70.8405 140.788 67.5952 140.505C66.7773 140.421 65.8802 140.336 64.9568 140.251C64.3235 145.388 63.2946 149.538 62.0281 154.562C61.2102 157.554 60.5506 160.376 59.0995 162.832C56.936 166.332 53.9809 167.009 50.4454 165.344C47.9653 164.3 45.9601 163.199 43.691 161.703C42.1608 160.658 40.393 159.529 39.1002 158.118C36.1979 154.929 38.5725 149.961 42.4246 149.425C44.509 149.086 46.6197 150.384 48.6249 151.034C49.9177 151.457 50.3927 150.441 50.7093 149.396C51.3425 147.28 51.9757 144.796 52.6353 141.38C52.8464 140.421 52.9519 139.348 53.2158 138.389C44.509 136.272 35.0898 132.01 28.9686 122.498C24.9846 116.316 23.3752 109.486 22.7947 103.53C22.267 103.445 21.6866 103.22 21.238 103.022C11.5814 98.1389 0.816611 85.4092 0.5 71.748C0.526384 70.5344 0.737464 69.4053 1.186 68.361L1.15961 68.4174Z" fill="#46B4CA"/>
<path d="M121.999 27.1799C122.527 27.9702 123.371 28.5065 124.374 28.9864C125.799 29.692 127.197 30.5388 128.384 31.5549C138.674 39.8814 134.743 56.1393 122.949 62.2078C121.34 62.9417 119.308 64.1271 117.91 62.9417C99.9686 47.8128 66.3286 36.1556 36.5936 58.5103C35.9604 58.9619 35.3799 59.4417 34.7203 59.8086C33.876 60.2885 33.2164 60.3167 32.0555 60.2038C27.7812 60.0062 21.4754 57.5224 17.808 52.4135C13.7976 47.0225 11.1591 37.2564 16.1721 31.075C19.3646 26.9541 24.8789 25.7122 29.9183 26.7848C31.9235 27.067 31.7916 26.3049 32.1346 24.188C34.3245 11.2325 45.5906 4.48659 56.672 9.84944C57.2788 10.1599 57.9912 10.5269 58.5717 10.8091C59.627 11.3172 60.2602 11.4301 60.8407 10.4986C68.5977 -1.44077 83.0826 -3.3601 92.924 8.40994C94.9556 10.4422 97.3565 8.24059 99.5728 7.73253C107.303 5.36159 116.01 9.84944 119.414 17.9784C120.311 19.9824 120.839 22.184 121.102 24.3856C121.234 25.3735 121.498 26.4178 121.999 27.1517H122.026L121.999 27.1799Z" fill="#EF779F"/>
<path d="M118.596 69.3489C120.073 69.2924 120.39 67.1473 120.786 65.482C121.182 63.3086 121.023 60.9941 120.311 58.9619C117.804 51.9337 110.127 47.5588 103.715 44.5951C78.6238 31.9783 36.1979 38.3572 30.6044 54.3611C30.024 56.224 29.9448 57.8329 30.4725 60.1191C30.8946 61.8691 31.8445 63.8167 33.6386 62.236C34.9314 61.0788 36.3034 59.8086 37.7018 58.7925C43.691 54.474 51.6854 52.4418 58.6245 51.2845C78.0697 47.9539 97.9898 54.6434 103.161 58.1716C107.013 60.3732 111.525 63.5909 116.142 67.9094C116.855 68.5303 117.752 69.2924 118.57 69.3489H118.596Z" fill="#E2F169"/>
<path d="M67.3316 68.2763C68.1231 66.2723 68.9675 64.8893 71.1837 64.6917C76.9619 64.2683 83.5843 64.3812 90.3387 65.228C92.898 65.5384 95.3253 65.9618 97.6471 66.4417C98.7817 66.6392 100.206 66.9215 101.103 67.6271C103.927 69.6876 102.027 72.5101 98.7289 72.9053C97.9637 72.9053 97.225 73.1311 97.0667 74.0061C96.6445 75.4738 96.0641 76.8851 95.3253 78.127C88.2807 90.3487 71.1046 87.5826 67.2789 73.8932C67.1205 73.3005 66.9622 72.7924 66.4082 72.7077C64.6932 72.6513 63.0838 72.6513 61.3688 72.6513C60.7883 72.6513 60.3134 72.9053 60.0496 73.498C56.8571 81.627 48.335 86.0302 41.2112 83.2641C35.8024 81.2036 32.0822 75.5303 31.5546 69.4618C31.5546 68.5868 31.0005 68.1916 30.2617 67.9941C28.9689 67.5425 28.1774 66.4417 28.2038 65.5949C28.3093 64.4941 29.2064 63.8731 30.2353 63.5909C30.895 63.4215 31.6865 63.478 32.3197 63.478C33.4278 63.478 34.4568 63.4215 35.5386 63.4215C42.161 63.3368 49.0737 63.7038 55.6434 64.4376C57.9388 64.5505 59.6274 65.5102 60.2606 67.9941C60.3662 68.3328 60.5509 68.4457 60.8411 68.4457C62.0548 68.4457 65.9333 68.4739 66.9095 68.4739C67.0414 68.4739 67.1469 68.4457 67.2525 68.3045L67.3316 68.2763Z" fill="#1B1B1B"/>
<path d="M43.8496 94.1027C43.8496 96.7841 46.145 98.4212 48.2294 99.2961C52.4245 101.3 59.3372 102.683 64.4821 102.203C68.0968 101.865 75.7482 100.397 78.9935 96.7841C80.9459 94.5825 79.8905 90.8567 77.1993 90.264C75.5107 89.8406 73.8221 90.6309 72.2655 91.2801C71.0782 91.7882 69.8909 92.2115 68.6244 92.5503C62.9254 94.1309 56.6724 93.5664 51.2636 91.139C49.7333 90.4898 47.9919 89.8406 46.3825 90.3769C44.905 90.8285 43.8496 92.4091 43.8496 94.0744V94.1309V94.1027Z" fill="white" stroke="#1D1D1B" stroke-width="1.06" stroke-miterlimit="10"/>
<path d="M144.558 77.1109C141.313 79.7923 136.775 79.3407 134.4 76.0665" stroke="#1D1D1B" stroke-width="0.41" stroke-miterlimit="10" stroke-linecap="round"/>
<path d="M11.9507 76.123C10.1302 78.6915 6.72666 78.748 5.06445 76.9415C3.40224 75.1351 3.56055 71.494 6.01429 69.6029" stroke="#1D1D1B" stroke-width="0.34" stroke-miterlimit="10" stroke-linecap="round"/>
<path d="M112.501 93.7357C112.343 94.6389 111.842 97.0381 109.889 99.1832C107.831 101.441 105.43 102.034 104.612 102.175" stroke="#1D1D1B" stroke-width="0.34" stroke-miterlimit="10" stroke-linecap="round"/>
</svg>
